<svg xmlns="http://www.w3.org/2000/svg" width="42.948" height="55.305" viewBox="0 0 42.948 55.305"><g transform="translate(-46.36 -89.73)"><g transform="translate(46.41 89.78)"><g transform="translate(7.898 7.619)"><path d="M92.212,148.286H58.184a.453.453,0,0,1-.454-.454V101.154a.453.453,0,0,1,.454-.454h25.53a.46.46,0,0,1,.321.133l8.505,8.505a.46.46,0,0,1,.133.321v38.166A.465.465,0,0,1,92.212,148.286Zm-33.575-.907H91.759V109.854l-8.233-8.247H58.637Z" transform="translate(-57.73 -100.7)" fill="#0acc0a" stroke="#0acc0a" stroke-width="0.1"/></g><path d="M46.864,137.366a.453.453,0,0,1-.454-.454V90.234a.453.453,0,0,1,.454-.454H80.892a.454.454,0,0,1,0,.907H47.317v46.225A.453.453,0,0,1,46.864,137.366Z" transform="translate(-46.41 -89.78)" fill="#0acc0a" stroke="#0acc0a" stroke-width="0.1"/><g transform="translate(33.422 7.621)"><path d="M103.283,110.113H94.764a.453.453,0,0,1-.454-.454v-8.505a.457.457,0,0,1,.279-.419.463.463,0,0,1,.5.1l8.443,8.45a.458.458,0,0,1,.209.377A.453.453,0,0,1,103.283,110.113Zm-8.059-.907h6.956l-6.956-6.956Z" transform="translate(-94.31 -100.702)" fill="#0acc0a" stroke="#0acc0a" stroke-width="0.1"/></g><g transform="translate(19.419 49.226)"><path d="M85.879,161.237H74.708a.465.465,0,0,1-.467-.454.441.441,0,0,1,.44-.454H86.039a.453.453,0,0,1,.454.454A.82.82,0,0,1,85.879,161.237Z" transform="translate(-74.241 -160.33)" fill="#0acc0a" stroke="#0acc0a" stroke-width="0.1"/></g><g transform="translate(14.583 46.142)"><path d="M88.424,156.817H67.764a.454.454,0,1,1,0-.907h20.66a.454.454,0,1,1,0,.907Z" transform="translate(-67.31 -155.91)" fill="#0acc0a" stroke="#0acc0a" stroke-width="0.1"/></g><g transform="translate(11.171 15.108)"><g transform="translate(13.704 22.633)"><path d="M95.143,146.249H82.36a.3.3,0,0,1-.3-.3V144.17a.3.3,0,0,1,.3-.3H95.143a.3.3,0,0,1,.3.3v1.779A.3.3,0,0,1,95.143,146.249Zm-12.483-.593H94.843V144.47H82.66Z" transform="translate(-82.06 -143.87)" fill="#0acc0a" stroke="#0acc0a" stroke-width="0.1"/></g><g transform="translate(5.688 2.686)"><path d="M79.16,130.652a.275.275,0,0,1-.209-.091l-8.289-8.289a.3.3,0,0,1,0-.426l6.475-6.475a.3.3,0,0,1,.426,0l8.289,8.289a.287.287,0,0,1,0,.419l-6.482,6.475A.26.26,0,0,1,79.16,130.652ZM71.3,122.063l7.871,7.871,6.056-6.049-7.871-7.871Z" transform="translate(-70.573 -115.283)" fill="#0acc0a" stroke="#0acc0a" stroke-width="0.1"/></g><g transform="translate(2.986)"><path d="M68.612,122.281a.275.275,0,0,1-.209-.091l-1.612-1.612a.287.287,0,0,1,0-.419l8.652-8.638a.291.291,0,0,1,.419,0l1.612,1.612a.287.287,0,0,1,0,.419l-8.652,8.638A.275.275,0,0,1,68.612,122.281Zm-1.186-1.912,1.186,1.186,8.226-8.219-1.186-1.186Z" transform="translate(-66.7 -111.432)" fill="#0acc0a" stroke="#0acc0a" stroke-width="0.1"/></g><g transform="translate(12.896 9.899)"><path d="M82.813,136.477a.275.275,0,0,1-.209-.091l-1.612-1.612a.291.291,0,0,1,0-.419l8.645-8.645a.3.3,0,0,1,.209-.091h0a.3.3,0,0,1,.209.091l1.612,1.612a.291.291,0,0,1,0,.419l-8.645,8.645A.3.3,0,0,1,82.813,136.477Zm-1.186-1.912,1.186,1.186,8.219-8.226-1.186-1.186-.872.872h0ZM88.764,127Z" transform="translate(-80.903 -125.62)" fill="#0acc0a" stroke="#0acc0a" stroke-width="0.1"/></g><g transform="translate(6.698 13.543)"><path d="M73.932,134.343h0a.275.275,0,0,1-.209-.091l-1.612-1.612a.287.287,0,0,1,0-.419l1.291-1.291a.291.291,0,0,1,.419,0l1.612,1.612a.291.291,0,0,1,0,.419l-1.291,1.291A.275.275,0,0,1,73.932,134.343Zm-1.186-1.912,1.186,1.186.872-.872-1.186-1.186Z" transform="translate(-72.02 -130.842)" fill="#0acc0a" stroke="#0acc0a" stroke-width="0.1"/></g><g transform="translate(0 14.846)"><path d="M64.332,141.606a.3.3,0,0,1-.209-.084l-1.612-1.6a.3.3,0,0,1-.091-.209.275.275,0,0,1,.091-.209l6.7-6.705a.312.312,0,0,1,.426,0l1.612,1.612a.291.291,0,0,1,0,.419l-6.7,6.7A.325.325,0,0,1,64.332,141.606Zm-1.186-1.9,1.186,1.186,6.273-6.28-1.186-1.186Z" transform="translate(-62.42 -132.71)" fill="#0acc0a" stroke="#0acc0a" stroke-width="0.1"/></g><g transform="translate(5.688 9.161)"><path d="M75.818,130.122a.275.275,0,0,1-.209-.091l-4.947-4.954a.3.3,0,0,1,0-.426.291.291,0,0,1,.419,0l4.947,4.954a.3.3,0,0,1,0,.426A.3.3,0,0,1,75.818,130.122Z" transform="translate(-70.573 -124.563)" fill="#0acc0a" stroke="#0acc0a" stroke-width="0.1"/></g><g transform="translate(11.389 14.876)"><path d="M81.629,135.932a.275.275,0,0,1-.209-.091l-2.589-2.582a.3.3,0,0,1,.419-.419l2.589,2.582a.291.291,0,0,1,0,.419A.275.275,0,0,1,81.629,135.932Z" transform="translate(-78.742 -132.752)" fill="#0acc0a" stroke="#0acc0a" stroke-width="0.1"/></g><g transform="translate(12.17 2.693)"><path d="M88.45,124.18a.275.275,0,0,1-.209-.091L79.951,115.8a.291.291,0,0,1,0-.419.3.3,0,0,1,.426,0l8.289,8.289a.291.291,0,0,1,0,.419A.3.3,0,0,1,88.45,124.18Z" transform="translate(-79.862 -115.293)" fill="#0acc0a" stroke="#0acc0a" stroke-width="0.1"/></g><g transform="translate(2.986)"><path d="M68.612,122.281a.275.275,0,0,1-.209-.091l-1.612-1.612a.287.287,0,0,1,0-.419l8.652-8.638a.291.291,0,0,1,.419,0l1.612,1.612a.287.287,0,0,1,0,.419l-8.652,8.638A.275.275,0,0,1,68.612,122.281Zm-1.186-1.912,1.186,1.186,7.354-7.347h0l.872-.872-1.186-1.186Z" transform="translate(-66.7 -111.432)" fill="#0acc0a" stroke="#0acc0a" stroke-width="0.1"/></g><g transform="translate(12.896 9.892)"><path d="M82.813,136.474a.275.275,0,0,1-.209-.091l-1.612-1.612a.291.291,0,0,1,0-.419l1.081-1.088h0l7.564-7.564a.3.3,0,0,1,.209-.091h0a.3.3,0,0,1,.209.091l1.612,1.612a.291.291,0,0,1,0,.419l-8.645,8.645A.283.283,0,0,1,82.813,136.474Zm-1.186-1.912,1.186,1.186,8.219-8.226-1.186-1.186-.872.872Z" transform="translate(-80.903 -125.61)" fill="#0acc0a" stroke="#0acc0a" stroke-width="0.1"/></g><g transform="translate(0 13.543)"><path d="M64.332,141.042a.3.3,0,0,1-.209-.084l-1.612-1.6a.3.3,0,0,1-.091-.209.275.275,0,0,1,.091-.209l7.989-8a.291.291,0,0,1,.419,0l1.612,1.612a.291.291,0,0,1,0,.419l-7.989,7.989A.275.275,0,0,1,64.332,141.042Zm-1.186-1.9,1.186,1.186,6.489-6.489h0l1.082-1.081-1.186-1.186Z" transform="translate(-62.42 -130.842)" fill="#0acc0a" stroke="#0acc0a" stroke-width="0.1"/></g><g transform="translate(7.244 11.757)"><path d="M76.22,133.039a.3.3,0,0,1-.209-.084.291.291,0,0,1,0-.419l.823-.83-2.7-2.7-.823.823a.291.291,0,0,1-.419,0,.3.3,0,0,1,0-.426l1.033-1.033a.291.291,0,0,1,.419,0l3.119,3.126a.291.291,0,0,1,0,.419l-1.033,1.033A.275.275,0,0,1,76.22,133.039Z" transform="translate(-72.802 -128.283)" fill="#0acc0a" stroke="#0acc0a" stroke-width="0.1"/></g><g transform="translate(5.905 14.025)"><path d="M74.39,135.354a.275.275,0,0,1-.209-.091l-3.21-3.217a.3.3,0,0,1,0-.426.291.291,0,0,1,.419,0l3.21,3.21a.291.291,0,0,1,0,.419A.248.248,0,0,1,74.39,135.354Z" transform="translate(-70.883 -131.533)" fill="#0acc0a" stroke="#0acc0a" stroke-width="0.1"/></g><g transform="translate(11.647 4.724)"><path d="M82.62,122.01a.275.275,0,0,1-.209-.091l-3.21-3.21a.291.291,0,0,1,0-.419.3.3,0,0,1,.426,0l3.21,3.21a.291.291,0,0,1,0,.419A.3.3,0,0,1,82.62,122.01Z" transform="translate(-79.112 -118.203)" fill="#0acc0a" stroke="#0acc0a" stroke-width="0.1"/></g><g transform="translate(13.704 22.633)"><path d="M95.143,146.249H82.36a.3.3,0,0,1-.3-.3V144.17a.3.3,0,0,1,.3-.3H95.143a.3.3,0,0,1,.3.3v1.779A.3.3,0,0,1,95.143,146.249Zm-12.483-.593H94.843V144.47H82.66Z" transform="translate(-82.06 -143.87)" fill="#0acc0a" stroke="#0acc0a" stroke-width="0.1"/></g></g></g></g></svg>
