<svg xmlns="http://www.w3.org/2000/svg" width="43.499" height="54.71" viewBox="0 0 43.499 54.71"><g transform="translate(0.05 0.05)"><g transform="translate(7.11 6.848)"><path d="M160.329,144.266h-18.1a.448.448,0,0,1-.449-.449v-42a.448.448,0,0,1,.449-.449H165.2a.455.455,0,0,1,.318.131l7.656,7.649a.455.455,0,0,1,.131.318v24.616a.449.449,0,0,1-.9,0v-24.43l-7.393-7.386H142.677v41.1h17.651a.449.449,0,1,1,0,.9Z" transform="translate(-141.78 -101.37)" fill="#0acc0a" stroke="#0acc0a" stroke-width="0.1"/></g><path d="M131.929,134.332a.448.448,0,0,1-.449-.449V91.9a.448.448,0,0,1,.449-.449h30.622a.449.449,0,0,1,0,.9H132.377v41.536A.448.448,0,0,1,131.929,134.332Z" transform="translate(-131.48 -91.45)" fill="#0acc0a" stroke="#0acc0a" stroke-width="0.1"/><g transform="translate(30.077 6.855)"><path d="M183.168,109.926H175.5a.448.448,0,0,1-.449-.449v-7.649a.452.452,0,0,1,.276-.414.448.448,0,0,1,.49.1l7.593,7.593a.453.453,0,0,1,.207.373A.448.448,0,0,1,183.168,109.926Zm-7.221-.9h6.123l-6.123-6.123Z" transform="translate(-175.05 -101.38)" fill="#0acc0a" stroke="#0acc0a" stroke-width="0.1"/></g><g transform="translate(26.75 37.574)"><path d="M177.389,160.2a7.159,7.159,0,1,1,7.159-7.159A7.165,7.165,0,0,1,177.389,160.2Zm0-13.413a6.258,6.258,0,1,0,6.254,6.261A6.269,6.269,0,0,0,177.389,146.784Z" transform="translate(-170.23 -145.88)" fill="#0acc0a" stroke="#0acc0a" stroke-width="0.1"/></g><g transform="translate(31.72 34.868)"><path d="M181.365,145.805a.607.607,0,0,1-.117-.014,6.16,6.16,0,0,0-3.244,0,.453.453,0,0,1-.573-.435v-2.948a.448.448,0,0,1,.449-.449h3.486a.448.448,0,0,1,.449.449v2.948a.449.449,0,0,1-.449.449Zm-3.037-2.948v1.933a7.094,7.094,0,0,1,2.589,0v-1.933Z" transform="translate(-177.43 -141.96)" fill="#0acc0a" stroke="#0acc0a" stroke-width="0.1"/></g><g transform="translate(38.193 38.073)"><path d="M189,151.992a.512.512,0,0,1-.173-.035.449.449,0,0,1-.262-.3,6.257,6.257,0,0,0-.628-1.519,6.129,6.129,0,0,0-1-1.3.463.463,0,0,1-.131-.373.448.448,0,0,1,.221-.331l2.554-1.47a.451.451,0,0,1,.614.166l1.746,3.024a.45.45,0,0,1,.048.338.41.41,0,0,1-.207.269l-2.554,1.47A.453.453,0,0,1,189,151.992Zm-1.035-3.362a7.012,7.012,0,0,1,.746,1.063,7.555,7.555,0,0,1,.545,1.18l1.677-.966-1.3-2.243Z" transform="translate(-186.807 -146.603)" fill="#0acc0a" stroke="#0acc0a" stroke-width="0.1"/></g><g transform="translate(38.197 46.008)"><path d="M189.814,163.5a.428.428,0,0,1-.221-.062l-2.554-1.47a.468.468,0,0,1-.221-.331.437.437,0,0,1,.124-.373,6.555,6.555,0,0,0,1-1.3,6.255,6.255,0,0,0,.628-1.519.446.446,0,0,1,.262-.3.433.433,0,0,1,.4.028l2.554,1.477a.451.451,0,0,1,.166.614l-1.746,3.024A.446.446,0,0,1,189.814,163.5Zm-1.843-2.023,1.677.966,1.3-2.243-1.677-.973a7.25,7.25,0,0,1-1.3,2.25Z" transform="translate(-186.813 -158.098)" fill="#0acc0a" stroke="#0acc0a" stroke-width="0.1"/></g><g transform="translate(31.72 50.779)"><path d="M181.365,168.841h-3.486a.448.448,0,0,1-.449-.449v-2.941a.438.438,0,0,1,.173-.352.457.457,0,0,1,.387-.076,6.434,6.434,0,0,0,3.258,0,.457.457,0,0,1,.387.076.438.438,0,0,1,.173.352v2.941A.438.438,0,0,1,181.365,168.841Zm-3.037-.9h2.589v-1.933a7.41,7.41,0,0,1-2.589,0Z" transform="translate(-177.43 -165.009)" fill="#0acc0a" stroke="#0acc0a" stroke-width="0.1"/></g><g transform="translate(24.43 46.017)"><path d="M169.065,163.5a.449.449,0,0,1-.387-.228l-1.746-3.024a.45.45,0,0,1-.048-.338.411.411,0,0,1,.207-.269l2.554-1.47a.44.44,0,0,1,.393-.028.449.449,0,0,1,.262.3,6.354,6.354,0,0,0,.628,1.519,6.076,6.076,0,0,0,1,1.3.437.437,0,0,1,.124.373.468.468,0,0,1-.221.331l-2.554,1.47A.351.351,0,0,1,169.065,163.5Zm-1.132-3.3,1.3,2.244,1.677-.966a7.586,7.586,0,0,1-.752-1.063,7.317,7.317,0,0,1-.545-1.18Z" transform="translate(-166.87 -158.111)" fill="#0acc0a" stroke="#0acc0a" stroke-width="0.1"/></g><g transform="translate(24.43 38.073)"><path d="M169.866,151.992a.428.428,0,0,1-.221-.062l-2.554-1.47a.439.439,0,0,1-.159-.607l1.746-3.024a.451.451,0,0,1,.614-.166l2.554,1.47a.448.448,0,0,1,.221.331.437.437,0,0,1-.124.373,6.287,6.287,0,0,0-1.629,2.823.435.435,0,0,1-.262.3A.628.628,0,0,1,169.866,151.992Zm-1.933-2.085,1.677.966a7.015,7.015,0,0,1,.545-1.18,6.725,6.725,0,0,1,.752-1.063l-1.677-.966Z" transform="translate(-166.87 -146.603)" fill="#0acc0a" stroke="#0acc0a" stroke-width="0.1"/></g><g transform="translate(30.104 40.942)"><path d="M178.894,158.36a3.8,3.8,0,1,1,3.8-3.8A3.806,3.806,0,0,1,178.894,158.36Zm0-6.71a2.9,2.9,0,1,0,2.906,2.9A2.909,2.909,0,0,0,178.894,151.65Z" transform="translate(-175.09 -150.76)" fill="#0acc0a" stroke="#0acc0a" stroke-width="0.1"/></g><g transform="translate(10.493 32.548)"><path d="M161.964,139.5H147.129a.449.449,0,1,1,0-.9h14.835a.449.449,0,0,1,0,.9Z" transform="translate(-146.68 -138.6)" fill="#0acc0a" stroke="#0acc0a" stroke-width="0.1"/></g><g transform="translate(10.493 35.903)"><path d="M161.964,144.357H147.129a.449.449,0,1,1,0-.9h14.835a.449.449,0,0,1,0,.9Z" transform="translate(-146.68 -143.46)" fill="#0acc0a" stroke="#0acc0a" stroke-width="0.1"/></g><g transform="translate(10.493 39.258)"><path d="M150.877,149.217h-3.748a.449.449,0,1,1,0-.9h3.748a.449.449,0,1,1,0,.9Z" transform="translate(-146.68 -148.32)" fill="#0acc0a" stroke="#0acc0a" stroke-width="0.1"/></g><g transform="translate(10.493 42.613)"><path d="M154.377,154.077h-7.248a.449.449,0,1,1,0-.9h7.248a.449.449,0,1,1,0,.9Z" transform="translate(-146.68 -153.18)" fill="#0acc0a" stroke="#0acc0a" stroke-width="0.1"/></g><g transform="translate(16.353 39.258)"><path d="M159.374,149.217h-3.755a.449.449,0,0,1,0-.9h3.755a.449.449,0,1,1,0,.9Z" transform="translate(-155.17 -148.32)" fill="#0acc0a" stroke="#0acc0a" stroke-width="0.1"/></g><g transform="translate(12.805 11.749)"><path d="M155.532,108.47a.681.681,0,0,1,.663.663v.683a7.252,7.252,0,0,1,3.493,1.325.839.839,0,0,1,.414.683.752.752,0,0,1-.787.746.7.7,0,0,1-.456-.145,6.248,6.248,0,0,0-2.727-1.2v5.108c3.141.7,4.466,1.926,4.466,4.011,0,2.216-1.822,3.742-4.4,3.907v1.47a.663.663,0,0,1-1.325,0v-1.512a8.214,8.214,0,0,1-4.487-1.843.772.772,0,0,1-.352-.663.76.76,0,0,1,.766-.746.769.769,0,0,1,.476.166,6.677,6.677,0,0,0,3.659,1.7V117.63c-3.058-.725-4.4-1.864-4.4-4.031,0-2.126,1.8-3.7,4.342-3.824v-.642A.681.681,0,0,1,155.532,108.47Zm-.6,7.566v-4.88c-1.76.083-2.81,1.077-2.81,2.333C152.122,114.69,152.681,115.435,154.931,116.036Zm1.2,1.864v4.984c1.781-.1,2.872-1.077,2.872-2.437C159,119.218,158.39,118.473,156.132,117.9Z" transform="translate(-150.03 -108.47)" fill="#0acc0a" stroke="#0acc0a" stroke-width="0.1"/></g></g></svg>
