<svg xmlns="http://www.w3.org/2000/svg" width="44.309" height="54.946" viewBox="0 0 44.309 54.946"><g transform="translate(-23.95 0.059)"><g transform="translate(24)"><g transform="translate(2.677)"><path d="M23.812,415.556l-5.1,1.789a.473.473,0,0,1-.6-.291L12.432,400.89a3.179,3.179,0,1,1,6-2.109L24.1,414.945A.478.478,0,0,1,23.812,415.556Zm-4.973.742,4.217-1.476L17.544,399.1a2.234,2.234,0,1,0-4.217,1.476Z" transform="translate(-12.252 -396.653)" fill="#0acc0a" stroke="#0acc0a" stroke-width="0.1"/></g><g transform="translate(9.736 21.349)"><path d="M34.241,454.223h0a.483.483,0,0,1-.444-.073L22.28,445.323a.462.462,0,0,1-.182-.371l-.138-16.709a.472.472,0,0,1,.313-.451l5-1.752a.481.481,0,0,1,.531.153l10.34,13.139a.461.461,0,0,1,.087.407L34.546,453.9A.492.492,0,0,1,34.241,454.223Zm-11.2-9.511L33.8,452.965l3.439-13.241-9.983-12.688-4.355,1.527Z" transform="translate(-21.96 -426.014)" fill="#0acc0a" stroke="#0acc0a" stroke-width="0.1"/></g><g transform="translate(6.553 17.298)"><path d="M28.393,424.7l-9.009,3.163a.473.473,0,0,1-.6-.291l-1.171-3.337a.473.473,0,0,1,.291-.6l9.009-3.163a.473.473,0,0,1,.6.291l1.171,3.337A.47.47,0,0,1,28.393,424.7Zm-8.878,2.116,8.122-2.85-.858-2.45-8.122,2.85Z" transform="translate(-17.583 -420.443)" fill="#0acc0a" stroke="#0acc0a" stroke-width="0.1"/></g><g transform="translate(13.702 31.151)"><path d="M31.439,445.374a3.025,3.025,0,1,1,1.854-3.854A3.031,3.031,0,0,1,31.439,445.374Zm-1.687-4.821a2.077,2.077,0,1,0,2.647,1.265A2.085,2.085,0,0,0,29.753,440.553Z" transform="translate(-27.414 -439.495)" fill="#0acc0a" stroke="#0acc0a" stroke-width="0.1"/></g><g transform="translate(17.097 36.109)"><path d="M37,459.763h0a.473.473,0,0,1-.6-.291l-4.29-12.535a.462.462,0,0,1,.291-.6h0a.479.479,0,0,1,.6.291l4.29,12.535A.477.477,0,0,1,37,459.763Z" transform="translate(-32.083 -446.314)" fill="#0acc0a" stroke="#0acc0a" stroke-width="0.1"/></g><g transform="translate(17.465 49.173)"><path d="M41.432,469.944H33.063a.472.472,0,0,1-.473-.473v-4.719a.472.472,0,0,1,.473-.473h8.369a.472.472,0,0,1,.473.473v4.719A.472.472,0,0,1,41.432,469.944Zm-7.9-.945h7.424v-3.774H33.535Z" transform="translate(-32.59 -464.28)" fill="#0acc0a" stroke="#0acc0a" stroke-width="0.1"/></g><g transform="translate(39.017 50.336)"><path d="M66.949,469.218H62.7a.472.472,0,0,1-.473-.473v-2.392a.472.472,0,0,1,.473-.473h4.246a.472.472,0,0,1,.473.473v2.392A.472.472,0,0,1,66.949,469.218Zm-3.766-.945h3.3v-1.447h-3.3Z" transform="translate(-62.23 -465.88)" fill="#0acc0a" stroke="#0acc0a" stroke-width="0.1"/></g><g transform="translate(25.834 51.528)"><path d="M57.763,468.465H44.573a.473.473,0,1,1,0-.945h13.19a.473.473,0,1,1,0,.945Z" transform="translate(-44.1 -467.52)" fill="#0acc0a" stroke="#0acc0a" stroke-width="0.1"/></g><g transform="translate(0 50.336)"><path d="M13.282,469.218H9.043a.472.472,0,0,1-.473-.473v-2.392a.472.472,0,0,1,.473-.473h4.239a.472.472,0,0,1,.473.473v2.392A.472.472,0,0,1,13.282,469.218Zm-3.766-.945h3.294v-1.447H9.515Z" transform="translate(-8.57 -465.88)" fill="#0acc0a" stroke="#0acc0a" stroke-width="0.1"/></g><g transform="translate(4.239 51.528)"><path d="M28.063,468.465H14.873a.473.473,0,1,1,0-.945h13.19a.473.473,0,1,1,0,.945Z" transform="translate(-14.4 -467.52)" fill="#0acc0a" stroke="#0acc0a" stroke-width="0.1"/></g></g></g></svg>
