<svg xmlns="http://www.w3.org/2000/svg" width="28.05" height="28.05" viewBox="0 0 28.05 28.05"><g fill="none"><path d="M14.025,0A14.025,14.025,0,1,1,0,14.025,14.025,14.025,0,0,1,14.025,0Z" stroke="none"/><path d="M 14.02522087097168 2 C 10.81315994262695 2 7.793371200561523 3.25084114074707 5.522100448608398 5.522100448608398 C 3.25084114074707 7.793371200561523 2 10.81315994262695 2 14.02522087097168 C 2 17.23727035522461 3.25084114074707 20.25707054138184 5.522100448608398 22.5283317565918 C 7.793371200561523 24.79960060119629 10.81317138671875 26.05044174194336 14.02522087097168 26.05044174194336 C 17.23727035522461 26.05044174194336 20.25707054138184 24.79960060119629 22.5283317565918 22.5283317565918 C 24.79960060119629 20.25707054138184 26.05044174194336 17.23727035522461 26.05044174194336 14.02522087097168 C 26.05044174194336 10.81317138671875 24.79960060119629 7.793371200561523 22.5283317565918 5.522100448608398 C 20.25707054138184 3.25084114074707 17.23727035522461 2 14.02522087097168 2 M 14.02522087097168 0 C 21.77113151550293 0 28.05044174194336 6.279300689697266 28.05044174194336 14.02522087097168 C 28.05044174194336 21.77113151550293 21.77113151550293 28.05044174194336 14.02522087097168 28.05044174194336 C 6.279300689697266 28.05044174194336 0 21.77113151550293 0 14.02522087097168 C 0 6.279300689697266 6.279300689697266 0 14.02522087097168 0 Z" stroke="none" fill="#0acc0a"/></g><path d="M3.572,9.818V5.4H5l.234-1.964H3.572V2.48c0-.506.014-1.007.767-1.007H5.1V.069A9,9,0,0,0,3.783,0,2.084,2.084,0,0,0,1.531,2.307V3.436H0V5.4H1.531V9.818Z" transform="translate(11.22 9.116)" fill="#0acc0a"/></svg>
