<svg xmlns="http://www.w3.org/2000/svg" width="65.376" height="54.675" viewBox="0 0 65.376 54.675"><path d="M93.01,247.215H28.717a.536.536,0,0,1-.537-.537v-53.6a.536.536,0,0,1,.537-.537H93.01a.536.536,0,0,1,.537.537v53.6A.536.536,0,0,1,93.01,247.215Zm-63.756-1.074H92.473V193.614H29.254Z" transform="translate(-28.18 -192.54)" fill="#0acc0a"/><g transform="translate(33.597 24.392)"><path d="M100.074,252.343H71.592a.559.559,0,0,1-.471-.273l-.215-.38a.536.536,0,0,1,.132-.686l4.131-3.3a16.3,16.3,0,0,1-.645-2.413l-5.23-.785a.533.533,0,0,1-.454-.529v-2.528a.534.534,0,0,1,.454-.529l5.23-.785a16.3,16.3,0,0,1,.645-2.413l-4.131-3.3a.536.536,0,0,1-.132-.686l1.463-2.528a.533.533,0,0,1,.661-.231l4.925,1.934a16.087,16.087,0,0,1,1.76-1.76l-1.942-4.925a.533.533,0,0,1,.231-.661l2.528-1.454a.536.536,0,0,1,.686.132l3.3,4.14a14.889,14.889,0,0,1,2.4-.644l.793-5.23a.533.533,0,0,1,.529-.454h2.917a.541.541,0,0,1,.529.454l.785,5.23a15.794,15.794,0,0,1,2.4.644l3.289-4.14a.538.538,0,0,1,.686-.132l1.487.859a.545.545,0,0,1,.273.463V228.7a.568.568,0,0,1-.041.2l-.9,2.272c.289.248.537.479.777.7a.524.524,0,0,1,.165.388v19.55A.536.536,0,0,1,100.074,252.343Zm-27.647-1.074h27.11V232.488q-.372-.347-.843-.744a.538.538,0,0,1-.157-.611l1-2.537v-2.842l-.818-.471-3.247,4.082a.551.551,0,0,1-.62.165,14.216,14.216,0,0,0-2.95-.793.535.535,0,0,1-.446-.446l-.777-5.156H88.687l-.777,5.156a.526.526,0,0,1-.446.446,14,14,0,0,0-2.942.793.554.554,0,0,1-.62-.165l-3.247-4.082-1.727,1,1.909,4.85a.539.539,0,0,1-.157.611,14.006,14.006,0,0,0-2.157,2.157.542.542,0,0,1-.611.165l-4.85-1.909-1,1.727,4.074,3.247a.538.538,0,0,1,.165.611,14.3,14.3,0,0,0-.785,2.95.526.526,0,0,1-.454.446l-5.156.768v1.6l5.156.768a.544.544,0,0,1,.454.446,14.3,14.3,0,0,0,.785,2.95.542.542,0,0,1-.165.611Z" transform="translate(-68.84 -222.06)" fill="#0acc0a"/></g><g transform="translate(0 10.866)"><path d="M93.01,206.764H28.717a.537.537,0,1,1,0-1.074H93.01a.537.537,0,1,1,0,1.074Z" transform="translate(-28.18 -205.69)" fill="#0acc0a"/></g><g transform="translate(4.669 3.479)"><path d="M36.193,201.485a2.367,2.367,0,1,1,2.371-2.363A2.363,2.363,0,0,1,36.193,201.485Zm0-3.652a1.293,1.293,0,1,0,1.3,1.3A1.292,1.292,0,0,0,36.193,197.832Z" transform="translate(-33.83 -196.75)" fill="#0acc0a"/></g><g transform="translate(12.601 3.479)"><path d="M45.793,201.485a2.367,2.367,0,1,1,2.363-2.363A2.363,2.363,0,0,1,45.793,201.485Zm0-3.652a1.277,1.277,0,0,0-1.289,1.3,1.289,1.289,0,1,0,1.289-1.3Z" transform="translate(-43.43 -196.75)" fill="#0acc0a"/></g><g transform="translate(28.581 5.321)"><path d="M99.019,200.054H63.307a.537.537,0,1,1,0-1.074h35.72a.536.536,0,0,1,.537.537A.548.548,0,0,1,99.019,200.054Z" transform="translate(-62.77 -198.98)" fill="#0acc0a"/></g><g transform="translate(7.734 15.972)"><path d="M86.911,216.291H38.077a.536.536,0,0,1-.537-.537v-3.346a.536.536,0,0,1,.537-.537H86.9a.536.536,0,0,1,.537.537v3.346A.524.524,0,0,1,86.911,216.291Zm-48.3-1.074H86.365v-2.272H38.614Z" transform="translate(-37.54 -211.87)" fill="#0acc0a"/></g><g transform="translate(7.527 26.334)"><path d="M66.053,225.484H37.827a.537.537,0,0,1,0-1.074H66.053a.537.537,0,0,1,0,1.074Z" transform="translate(-37.29 -224.41)" fill="#0acc0a"/></g><g transform="translate(7.527 29.713)"><path d="M48.1,229.574H37.827a.537.537,0,1,1,0-1.074H48.1a.537.537,0,1,1,0,1.074Z" transform="translate(-37.29 -228.5)" fill="#0acc0a"/></g><g transform="translate(7.527 33.093)"><path d="M60.451,233.664H37.827a.537.537,0,1,1,0-1.074H60.451a.537.537,0,1,1,0,1.074Z" transform="translate(-37.29 -232.59)" fill="#0acc0a"/></g><g transform="translate(7.527 36.472)"><path d="M54.394,237.754H37.827a.537.537,0,1,1,0-1.074H54.394a.537.537,0,1,1,0,1.074Z" transform="translate(-37.29 -236.68)" fill="#0acc0a"/></g><g transform="translate(7.527 39.843)"><path d="M60.335,241.834H37.827a.537.537,0,1,1,0-1.074H60.335a.537.537,0,1,1,0,1.074Z" transform="translate(-37.29 -240.76)" fill="#0acc0a"/></g><g transform="translate(7.527 43.231)"><path d="M53.865,245.934H37.827a.537.537,0,1,1,0-1.074H53.865a.537.537,0,1,1,0,1.074Z" transform="translate(-37.29 -244.86)" fill="#0acc0a"/></g></svg>
