<svg xmlns="http://www.w3.org/2000/svg" width="28.05" height="28.05" viewBox="0 0 28.05 28.05"><g fill="none"><path d="M14.025,0A14.025,14.025,0,1,1,0,14.025,14.025,14.025,0,0,1,14.025,0Z" stroke="none"/><path d="M 14.02522087097168 2 C 10.81315994262695 2 7.793371200561523 3.25084114074707 5.522100448608398 5.522100448608398 C 3.25084114074707 7.793371200561523 2 10.81315994262695 2 14.02522087097168 C 2 17.23727035522461 3.25084114074707 20.25707054138184 5.522100448608398 22.5283317565918 C 7.793371200561523 24.79960060119629 10.81317138671875 26.05044174194336 14.02522087097168 26.05044174194336 C 17.23727035522461 26.05044174194336 20.25707054138184 24.79960060119629 22.5283317565918 22.5283317565918 C 24.79960060119629 20.25707054138184 26.05044174194336 17.23727035522461 26.05044174194336 14.02522087097168 C 26.05044174194336 10.81317138671875 24.79960060119629 7.793371200561523 22.5283317565918 5.522100448608398 C 20.25707054138184 3.25084114074707 17.23727035522461 2 14.02522087097168 2 M 14.02522087097168 0 C 21.77113151550293 0 28.05044174194336 6.279300689697266 28.05044174194336 14.02522087097168 C 28.05044174194336 21.77113151550293 21.77113151550293 28.05044174194336 14.02522087097168 28.05044174194336 C 6.279300689697266 28.05044174194336 0 21.77113151550293 0 14.02522087097168 C 0 6.279300689697266 6.279300689697266 0 14.02522087097168 0 Z" stroke="none" fill="#0acc0a"/></g><path d="M5.363,9.818c-.635,0-1.377-.022-2.482-.072A3.609,3.609,0,0,1,1.7,9.519,2.477,2.477,0,0,1,.266,8.095c-.4-1.037-.229-5.159-.227-5.2A2.865,2.865,0,0,1,.83.849,2.881,2.881,0,0,1,2.881.06C3.757.02,4.5,0,5.156,0c2.741,0,3.3.352,3.8.849.766.764.987,1.748.79,6.063a3.578,3.578,0,0,1-.227,1.183C9.013,9.4,8,9.818,5.363,9.818ZM4.393.869c-2.173,0-2.589.249-2.941.6A2.121,2.121,0,0,0,.918,2.934a24.925,24.925,0,0,0,.169,4.843,1.605,1.605,0,0,0,.927.925,2.689,2.689,0,0,0,.907.167c1.089.05,1.887.073,2.509.073,2.186,0,2.92-.261,3.272-1.165a2.684,2.684,0,0,0,.168-.9c.194-4.2-.025-4.9-.533-5.4A2.129,2.129,0,0,0,6.869.937C5.863.891,5.054.869,4.393.869Zm.5,6.536A2.5,2.5,0,1,1,7.4,4.9,2.508,2.508,0,0,1,4.895,7.405Zm0-4.126A1.624,1.624,0,1,0,6.523,4.9,1.628,1.628,0,0,0,4.895,3.279ZM7.5,2.887A.585.585,0,1,1,8.089,2.3.586.586,0,0,1,7.5,2.887Z" transform="translate(9.117 9.116)" fill="#0acc0a"/></svg>
