<svg xmlns="http://www.w3.org/2000/svg" width="30.272" height="30.281" viewBox="0 0 30.272 30.281"><g transform="translate(0)"><path d="M15.228,30.281a15.135,15.135,0,1,1,9.342-3.232A15.125,15.125,0,0,1,15.228,30.281ZM15.185,1.239a13.9,13.9,0,0,0,.043,27.8A13.9,13.9,0,0,0,26.144,6.551a13.813,13.813,0,0,0-9.277-5.212A14.435,14.435,0,0,0,15.185,1.239Z" transform="translate(-0.076 0)" fill="#0acc0a"/><g transform="translate(6.278 8.47)"><path d="M92.539,115.941H77.417a1.3,1.3,0,0,1-1.3-1.3V103.9a1.3,1.3,0,0,1,1.3-1.3H92.539a1.3,1.3,0,0,1,1.3,1.3v10.747A1.3,1.3,0,0,1,92.539,115.941Zm-15.122-12.1a.059.059,0,0,0-.059.059v10.747a.059.059,0,0,0,.059.059H92.539a.059.059,0,0,0,.059-.059V103.9a.059.059,0,0,0-.059-.059Z" transform="translate(-76.12 -102.6)" fill="#0acc0a"/></g><g transform="translate(6.53 8.59)"><path d="M87.776,111.089a1.166,1.166,0,0,1-.691-.228l-7.915-5.813.733-1,7.872,5.782,7.872-5.782.733,1-7.915,5.813A1.154,1.154,0,0,1,87.776,111.089Z" transform="translate(-79.17 -104.05)" fill="#0acc0a"/></g></g></svg>