<svg xmlns="http://www.w3.org/2000/svg" width="28.05" height="28.05" viewBox="0 0 28.05 28.05"><g fill="none"><path d="M14.025,0A14.025,14.025,0,1,1,0,14.025,14.025,14.025,0,0,1,14.025,0Z" stroke="none"/><path d="M 14.02522087097168 2 C 10.81315994262695 2 7.793371200561523 3.25084114074707 5.522100448608398 5.522100448608398 C 3.25084114074707 7.793371200561523 2 10.81315994262695 2 14.02522087097168 C 2 17.23727035522461 3.25084114074707 20.25707054138184 5.522100448608398 22.5283317565918 C 7.793371200561523 24.79960060119629 10.81317138671875 26.05044174194336 14.02522087097168 26.05044174194336 C 17.23727035522461 26.05044174194336 20.25707054138184 24.79960060119629 22.5283317565918 22.5283317565918 C 24.79960060119629 20.25707054138184 26.05044174194336 17.23727035522461 26.05044174194336 14.02522087097168 C 26.05044174194336 10.81317138671875 24.79960060119629 7.793371200561523 22.5283317565918 5.522100448608398 C 20.25707054138184 3.25084114074707 17.23727035522461 2 14.02522087097168 2 M 14.02522087097168 0 C 21.77113151550293 0 28.05044174194336 6.279300689697266 28.05044174194336 14.02522087097168 C 28.05044174194336 21.77113151550293 21.77113151550293 28.05044174194336 14.02522087097168 28.05044174194336 C 6.279300689697266 28.05044174194336 0 21.77113151550293 0 14.02522087097168 C 0 6.279300689697266 6.279300689697266 0 14.02522087097168 0 Z" stroke="none" fill="#0acc0a"/></g><path d="M2.867,7.714A5.406,5.406,0,0,0,8.189,2.172c0-.084,0-.169-.005-.252A3.89,3.89,0,0,0,9.116.912a3.611,3.611,0,0,1-1.074.307A1.945,1.945,0,0,0,8.865.141,3.66,3.66,0,0,1,7.677.614,1.821,1.821,0,0,0,5.03.529a2,2,0,0,0-.541,1.861A5.245,5.245,0,0,1,.635.356a2,2,0,0,0,.579,2.6,1.8,1.8,0,0,1-.849-.244v.025a1.931,1.931,0,0,0,1.5,1.909,1.789,1.789,0,0,1-.844.033A1.883,1.883,0,0,0,2.768,6.032a3.659,3.659,0,0,1-2.323.835A3.684,3.684,0,0,1,0,6.839a5.145,5.145,0,0,0,2.867.873" transform="translate(9.818 10.519)" fill="#0acc0a"/></svg>
