<svg xmlns="http://www.w3.org/2000/svg" width="30.284" height="30.284" viewBox="0 0 30.284 30.284"><g transform="translate(6.411 6.37)"><path d="M86.548,603.586a7.176,7.176,0,0,1-3.964-1.184l-2.769.878.9-2.652a7.1,7.1,0,0,1-1.368-4.193c0-.233.012-.466.032-.694a7.211,7.211,0,0,1,14.356.137c.012.181.024.369.024.558a7.188,7.188,0,0,1-7.21,7.15Zm8.567-7.367a8.57,8.57,0,0,0-17.125-.156c-.008.125-.012.248-.012.373a8.39,8.39,0,0,0,1.232,4.389l-1.549,4.566,4.747-1.509a8.585,8.585,0,0,0,12.716-7.447c0-.072,0-.145-.008-.216Z" transform="translate(-77.66 -587.93)" fill="#0acc0a" fill-rule="evenodd"/><g transform="translate(4.46 4.624)"><path d="M139.8,649.54c-.213-.108-1.244-.61-1.436-.678s-.333-.1-.474.1-.542.679-.666.815-.245.157-.453.052a5.715,5.715,0,0,1-1.689-1.035,6.267,6.267,0,0,1-1.171-1.441c-.121-.209-.012-.321.092-.425s.213-.245.317-.365c.032-.036.052-.068.076-.1a2.028,2.028,0,0,0,.132-.248.375.375,0,0,0-.016-.365c-.052-.1-.473-1.132-.646-1.549s-.353-.345-.474-.345-.265-.02-.405-.02a.77.77,0,0,0-.558.261,2.334,2.334,0,0,0-.738,1.741,2.582,2.582,0,0,0,.108.706,4.74,4.74,0,0,0,.75,1.449,8.59,8.59,0,0,0,3.591,3.145c2.135.835,2.135.557,2.52.522a2.114,2.114,0,0,0,1.421-.991,1.75,1.75,0,0,0,.121-.991c-.052-.086-.192-.138-.4-.242Z" transform="translate(-131.69 -643.94)" fill="#0acc0a" fill-rule="evenodd"/></g></g><path d="M15.142,541.054a15.142,15.142,0,1,1,15.142-15.142A15.159,15.159,0,0,1,15.142,541.054Zm0-29.047a13.9,13.9,0,1,0,13.9,13.9A13.92,13.92,0,0,0,15.142,512.008Z" transform="translate(0 -510.77)" fill="#0acc0a"/></svg>